<svg viewBox="0 0 32 32" fill="currentColor" width="32" height="32" xmlns="http://www.w3.org/2000/svg" xmlns:xlink="http://www.w3.org/1999/xlink">
    <path d="M27 13v1a7.0075 7.0075 0 0 1-6.055 6.9338A4.975 4.975 0 0 1 22 24v5a1 1 0 0 1-1 1h-8a1 1 0 0 1-1-1v-2H9a5 5 0 0 1-5-5 3 3 0 0 0-3-3 1 1 0 0 1 0-2 5 5 0 0 1 5 5 3 3 0 0 0 3 3h3v-1a4.975 4.975 0 0 1 1.055-3.0662A7.0075 7.0075 0 0 1 7 14v-1a7.2675 7.2675 0 0 1 0.9613-3.54 7.4725 7.4725 0 0 1 0.6724-5.96A1 1 0 0 1 9.5 3a7.4688 7.4688 0 0 1 6 3h3a7.4688 7.4688 0 0 1 6-3 1 1 0 0 1 0.8663 0.5 7.4675 7.4675 0 0 1 0.6712 5.96A7.25 7.25 0 0 1 27 13z" />
</svg>