<svg viewBox="0 0 32 32" fill="currentColor" width="32" height="32" xmlns="http://www.w3.org/2000/svg" xmlns:xlink="http://www.w3.org/1999/xlink">
    <path opacity="0.2" d="M26 13v1a6 6 0 0 1-6 6h-3a4 4 0 0 1 4 4v5h-8v-5a4 4 0 0 1 4-4h-3a6 6 0 0 1-6-6v-1a6.16 6.16 0 0 1 1.0638-3.4125A6.49 6.49 0 0 1 9.5 4a6.5 6.5 0 0 1 5.4788 3h4.0425A6.5 6.5 0 0 1 24.5 4a6.49 6.49 0 0 1 0.4363 5.5875A6.16 6.16 0 0 1 26 13z" />
    <path d="M26.0375 9.46a7.4675 7.4675 0 0 0-0.6712-5.96A1 1 0 0 0 24.5 3a7.4688 7.4688 0 0 0-6 3h-3a7.4688 7.4688 0 0 0-6-3 1 1 0 0 0-0.8663 0.5 7.4725 7.4725 0 0 0-0.6725 5.96A7.2675 7.2675 0 0 0 7 13v1a7.0075 7.0075 0 0 0 6.055 6.9338A4.975 4.975 0 0 0 12 24v1H9a3 3 0 0 1-3-3 5 5 0 0 0-5-5 1 1 0 0 0 0 2 3 3 0 0 1 3 3 5 5 0 0 0 5 5h3v2a1 1 0 0 0 2 0v-5a3 3 0 0 1 6 0v5a1 1 0 0 0 2 0v-5a4.975 4.975 0 0 0-1.055-3.0662A7.0075 7.0075 0 0 0 27 14v-1a7.25 7.25 0 0 0-0.9625-3.54zM25 14a5 5 0 0 1-5 5h-6a5 5 0 0 1-5-5v-1a5.2175 5.2175 0 0 1 0.8625-2.81A1 1 0 0 0 10 9.2288a5.4763 5.4763 0 0 1 0.0988-4.1975 5.485 5.485 0 0 1 4.04 2.5075A1 1 0 0 0 14.9775 8h4.0437a1 1 0 0 0 0.8426-0.4612 5.4838 5.4838 0 0 1 4.04-2.5075A5.4763 5.4763 0 0 1 24 9.2288a1.0113 1.0113 0 0 0 0.125 0.9562A5.22 5.22 0 0 1 25 13z" />
</svg>