<svg viewBox="0 0 32 32" fill="currentColor" width="32" height="32" xmlns="http://www.w3.org/2000/svg" xmlns:xlink="http://www.w3.org/1999/xlink">
    <path opacity="0.2" d="M27 9v9a4 4 0 0 1-4 4H5V9a4 4 0 0 1 4-4h14a4 4 0 0 1 4 4z" />
    <path d="M23 4H9a5 5 0 0 0-5 5v15a5 5 0 0 0 5 5h11a1 1 0 0 0 0-2H9a3 3 0 0 1-3-3v-1h17a5 5 0 0 0 5-5V9a5 5 0 0 0-5-5zM26 18a3 3 0 0 1-3 3H6V9a3 3 0 0 1 3-3h14a3 3 0 0 1 3 3zM23 13v4a1 1 0 0 1-2 0v-4a2 2 0 0 0-4 0v4a1 1 0 0 1-2 0v-4a2 2 0 0 0-4 0v4a1 1 0 0 1-2 0v-4a4 4 0 0 1 7-2.6412A4 4 0 0 1 23 13z" />
</svg>