<svg viewBox="0 0 32 32" fill="currentColor" width="32" height="32" xmlns="http://www.w3.org/2000/svg" xmlns:xlink="http://www.w3.org/1999/xlink">
    <path opacity="0.2" d="M28.7088 16.7025l-12.0001 12a0.9925 0.9925 0 0 1-1.4049 0l-12.0001-12a0.9925 0.9925 0 0 1 0-1.405l12.0063-12a0.9925 0.9925 0 0 1 1.405 0l12 12.0063a0.9925 0.9925 0 0 1-62e-4 1.3987z" />
    <path d="M29.4175 14.59 17.41 2.5825a2 2 0 0 0-2.82 0L2.5825 14.59a2 2 0 0 0 0 2.82L14.59 29.4175a2 2 0 0 0 2.82 0L29.4175 17.41a2 2 0 0 0 0-2.82zM16 4l7 7h-3a1 1 0 0 0-0.7075 0.2925L16 14.585l-3.2925-3.2925A1 1 0 0 0 12 11H9zM7 13h4.585l3 3-3 3H7l-3-3zM16 28 9 21h3a1 1 0 0 0 0.7075-0.2925L16 17.4138l3.2925 3.2937A1 1 0 0 0 20 21h3zM25 19h-4.585l-3-3 3-3H25l3 3z" />
</svg>