<svg viewBox="0 0 32 32" fill="currentColor" width="32" height="32" xmlns="http://www.w3.org/2000/svg" xmlns:xlink="http://www.w3.org/1999/xlink">
    <path d="M29.4175 17.41l-2.445 2.4438A0.5 0.5 0 0 1 26.625 20h-5.21l-4-4 4-4h5.21a0.5 0.5 0 0 1 0.3525 0.1463l2.445 2.4437a2 2 0 0 1-5e-3 2.82zM8.3813 10H11a1 1 0 0 1 0.7063 0.2925L16 14.585l4.2938-4.2925A1 1 0 0 1 21 10h2.625a0.5 0.5 0 0 0 0.3538-0.8537l-6.5625-6.5638a2 2 0 0 0-2.82 0L8.0275 9.1463A0.5 0.5 0 0 0 8.3813 10zM23.625 22H21a1 1 0 0 1-0.7062-0.2925L16 17.4138l-4.2937 4.2937A1 1 0 0 1 11 22H8.375a0.5 0.5 0 0 0-0.3537 0.8538l6.5625 6.5637a2 2 0 0 0 2.82 0l6.5625-6.5637A0.5 0.5 0 0 0 23.625 22zM14.5925 16l-4-4H5.375a0.5 0.5 0 0 0-0.3525 0.1463l-2.44 2.4437a2 2 0 0 0 0 2.82l2.445 2.4438A0.5 0.5 0 0 0 5.375 20h5.21z" />
</svg>